<?xml version="1.0" standalone="no"?>
<!DOCTYPE svg PUBLIC "-//W3C//DTD SVG 20010904//EN"
 "http://www.w3.org/TR/2001/REC-SVG-20010904/DTD/svg10.dtd">
<svg version="1.0" xmlns="http://www.w3.org/2000/svg"
 width="512.000000pt" height="512.000000pt" viewBox="0 0 512.000000 512.000000"
 preserveAspectRatio="xMidYMid meet">

<g transform="translate(0.000000,512.000000) scale(0.100000,-0.100000)"
fill="black" stroke="none">
<path d="M1141 4785 c-178 -39 -348 -172 -429 -336 -67 -135 -72 -173 -72
-576 l0 -353 160 0 159 0 3 358 3 357 26 56 c33 71 87 125 158 158 l56 26
1675 0 1675 0 56 -26 c71 -33 125 -87 158 -158 l26 -56 0 -1675 0 -1675 -26
-56 c-33 -71 -87 -125 -158 -158 l-56 -26 -1675 0 -1675 0 -56 26 c-71 33
-125 87 -158 158 l-26 56 -3 357 -3 358 -159 0 -160 0 0 -352 c0 -404 5 -442
72 -577 82 -166 251 -297 434 -336 104 -22 3364 -22 3468 0 239 50 441 252
491 491 22 104 22 3364 0 3468 -50 239 -252 441 -491 491 -100 21 -3374 21
-3473 0z"/>
<path d="M2809 3807 c-72 -48 -97 -126 -65 -200 8 -18 200 -218 440 -457 l426
-425 -1754 -5 c-1753 -5 -1755 -5 -1782 -26 -53 -39 -69 -71 -69 -134 0 -63
16 -95 69 -134 27 -21 29 -21 1782 -26 l1754 -5 -426 -425 c-240 -239 -432
-439 -440 -457 -32 -74 -7 -152 65 -200 37 -25 91 -30 138 -13 37 14 1171
1146 1189 1187 8 18 14 51 14 73 0 22 -6 55 -14 73 -18 41 -1152 1173 -1189
1187 -47 17 -101 12 -138 -13z"/>
</g>
</svg>
