<svg xmlns="http://www.w3.org/2000/svg" width="64" height="64" viewBox="0 0 64 64" version="1.1"><path d="" stroke="none" fill="#080404" fill-rule="evenodd"/><path d="M 50.420 7.587 L 47.500 10.673 50.500 13.587 L 53.500 16.500 56.500 13.500 L 59.500 10.500 56.420 7.500 L 53.340 4.500 50.420 7.587 M 11.982 12.018 C 6.505 17.495, 3.977 23.370, 3.871 30.866 C 3.579 51.651, 22.162 65.089, 42.057 58.481 C 46.724 56.931, 56.919 48.585, 55.670 47.337 C 55.375 47.042, 53.464 47.352, 51.422 48.026 C 43.498 50.641, 31.749 47.867, 24.337 41.631 C 17.171 35.600, 13.074 21.367, 15.974 12.578 C 16.648 10.536, 16.967 8.634, 16.683 8.350 C 16.399 8.066, 14.284 9.716, 11.982 12.018 M 30.672 15.161 L 27.860 18.014 30.694 20.848 L 33.527 23.681 36.243 20.925 L 38.960 18.168 36.222 15.238 L 33.485 12.307 30.672 15.161 M 46.139 27.555 C 44.970 28.900, 43.548 30, 42.978 30 C 42.409 30, 43.392 31.463, 45.162 33.250 L 48.380 36.500 51.190 33.673 L 54 30.846 51.132 27.978 L 48.264 25.111 46.139 27.555" stroke="none" fill="white" fill-rule="evenodd"/></svg>